<svg width="84" height="23" viewBox="0 0 84 23" fill="none" xmlns="http://www.w3.org/2000/svg">
<path d="M13.54 19V8.88L9.36 16.56H8.04L3.84 8.88V19H1.6V4.8H4L8.7 13.48L13.4 4.8H15.8V19H13.54ZM18.7223 19V8.54H20.9223V19H18.7223ZM18.7223 6.82V4.4H20.9223V6.82H18.7223Z" fill="#FF725E"/>
<path d="M39.5661 19H37.3661V13.14C37.3661 12.1667 37.2061 11.4533 36.8861 11C36.5661 10.5467 36.0994 10.32 35.4861 10.32C34.8728 10.32 34.2994 10.5533 33.7661 11.02C33.2461 11.4733 32.8794 12.0667 32.6661 12.8V19H30.4661V13.14C30.4661 12.1667 30.3061 11.4533 29.9861 11C29.6661 10.5467 29.2061 10.32 28.6061 10.32C27.9928 10.32 27.4194 10.5467 26.8861 11C26.3661 11.4533 25.9928 12.0467 25.7661 12.78V19H23.5661V8.54H25.5661V10.64C25.9794 9.90667 26.5194 9.34667 27.1861 8.96C27.8661 8.56 28.6394 8.36 29.5061 8.36C30.3728 8.36 31.0528 8.58667 31.5461 9.04C32.0528 9.49333 32.3661 10.06 32.4861 10.74C32.9394 9.96667 33.4928 9.38 34.1461 8.98C34.8128 8.56667 35.5728 8.36 36.4261 8.36C37.0394 8.36 37.5528 8.47333 37.9661 8.7C38.3794 8.92667 38.6994 9.24 38.9261 9.64C39.1528 10.0267 39.3128 10.48 39.4061 11C39.5128 11.5067 39.5661 12.0467 39.5661 12.62V19ZM46.8013 19.2C45.9746 19.2 45.2346 19.06 44.5813 18.78C43.9279 18.4867 43.3613 18.0867 42.8813 17.58C42.4146 17.0733 42.0546 16.5 41.8013 15.86C41.5479 15.2067 41.4213 14.5133 41.4213 13.78C41.4213 13.0467 41.5479 12.3533 41.8013 11.7C42.0546 11.0467 42.4146 10.4733 42.8813 9.98C43.3613 9.47333 43.9279 9.08 44.5813 8.8C45.2479 8.50667 45.9879 8.36 46.8013 8.36C47.6146 8.36 48.3479 8.50667 49.0013 8.8C49.6679 9.08 50.2346 9.47333 50.7013 9.98C51.1813 10.4733 51.5479 11.0467 51.8012 11.7C52.0546 12.3533 52.1813 13.0467 52.1813 13.78C52.1813 14.5133 52.0546 15.2067 51.8012 15.86C51.5479 16.5 51.1813 17.0733 50.7013 17.58C50.2346 18.0867 49.6679 18.4867 49.0013 18.78C48.3479 19.06 47.6146 19.2 46.8013 19.2ZM43.6813 13.8C43.6813 14.4667 43.8213 15.0667 44.1013 15.6C44.3813 16.1333 44.7546 16.5533 45.2213 16.86C45.6879 17.1667 46.2146 17.32 46.8013 17.32C47.3746 17.32 47.8946 17.1667 48.3613 16.86C48.8413 16.54 49.2213 16.1133 49.5013 15.58C49.7813 15.0333 49.9213 14.4333 49.9213 13.78C49.9213 13.1133 49.7813 12.5133 49.5013 11.98C49.2213 11.4467 48.8413 11.0267 48.3613 10.72C47.8946 10.4 47.3746 10.24 46.8013 10.24C46.2146 10.24 45.6879 10.4 45.2213 10.72C44.7546 11.04 44.3813 11.4667 44.1013 12C43.8213 12.52 43.6813 13.12 43.6813 13.8ZM57.8525 19.2C56.9725 19.2 56.1392 19.06 55.3525 18.78C54.5658 18.4867 53.8925 18.0533 53.3325 17.48L54.1525 16C54.7525 16.5333 55.3525 16.92 55.9525 17.16C56.5658 17.4 57.1725 17.52 57.7725 17.52C58.3858 17.52 58.8858 17.4067 59.2725 17.18C59.6592 16.94 59.8525 16.5933 59.8525 16.14C59.8525 15.8067 59.7525 15.56 59.5525 15.4C59.3525 15.24 59.0592 15.1 58.6725 14.98C58.2992 14.86 57.8458 14.7267 57.3125 14.58C56.5658 14.3533 55.9392 14.12 55.4325 13.88C54.9258 13.6267 54.5458 13.32 54.2925 12.96C54.0392 12.6 53.9125 12.14 53.9125 11.58C53.9125 10.9 54.0858 10.32 54.4325 9.84C54.7792 9.36 55.2592 8.99333 55.8725 8.74C56.4992 8.48667 57.2192 8.36 58.0325 8.36C58.7925 8.36 59.4925 8.48 60.1325 8.72C60.7858 8.94667 61.3592 9.30667 61.8525 9.8L60.9125 11.26C60.4458 10.8333 59.9658 10.52 59.4725 10.32C58.9925 10.12 58.4725 10.02 57.9125 10.02C57.5925 10.02 57.2858 10.06 56.9925 10.14C56.6992 10.2067 56.4525 10.34 56.2525 10.54C56.0658 10.7267 55.9725 10.9933 55.9725 11.34C55.9725 11.62 56.0525 11.8467 56.2125 12.02C56.3725 12.1933 56.6125 12.34 56.9325 12.46C57.2525 12.58 57.6458 12.7133 58.1125 12.86C58.9258 13.1 59.6192 13.34 60.1925 13.58C60.7658 13.8067 61.2058 14.1067 61.5125 14.48C61.8325 14.84 61.9925 15.34 61.9925 15.98C61.9925 16.9933 61.6125 17.7867 60.8525 18.36C60.1058 18.92 59.1058 19.2 57.8525 19.2Z" fill="#0C1F81"/>
<rect x="67.7724" y="7.76175" width="12.3146" height="11.2051" transform="rotate(1.33369 67.7724 7.76175)" stroke="#FF725E"/>
<rect x="71.1777" y="4.5115" width="12.3146" height="11.2051" transform="rotate(1.33369 71.1777 4.5115)" stroke="#FF725E"/>
<path d="M70.9728 15.6601L67.5675 18.9104" stroke="#FF725E" stroke-linecap="round"/>
<path d="M83.1749 15.9442L79.7697 19.1945" stroke="#FF725E" stroke-linecap="round"/>
<path d="M67.8263 7.81787L71.2316 4.56759" stroke="#FF725E" stroke-linecap="round"/>
<path d="M80.028 8.10193L83.4332 4.85164" stroke="#FF725E" stroke-linecap="round"/>
</svg>
